<svg width="123" height="17" viewBox="0 0 123 17" fill="none" xmlns="http://www.w3.org/2000/svg">
<g clip-path="url(#clip0_27_89)">
<path d="M11.4898 4.28548C11.0564 4.04214 10.5562 3.92047 9.98943 3.92047H6.76855V13.0795H7.89553V9.80795H9.98943C10.5562 9.80795 11.0564 9.68628 11.4898 9.43618C11.9233 9.18608 12.2634 8.84135 12.5168 8.39522C12.7702 7.9491 12.8902 7.44214 12.8902 6.86083V6.84731C12.8902 6.266 12.7635 5.75904 12.5168 5.31968C12.27 4.88031 11.93 4.53558 11.4898 4.29224V4.28548ZM11.7366 6.87435C11.7366 7.47594 11.5565 7.9491 11.2031 8.28707C10.8497 8.62504 10.3495 8.80079 9.70268 8.80079H7.89553V4.94115H9.70268C10.3495 4.94115 10.8497 5.11013 11.2031 5.44811C11.5565 5.78608 11.7366 6.25924 11.7366 6.86083V6.87435Z" fill="#081C15" fill-opacity="0.25"/>
<path d="M18.4184 6.7662C17.965 6.48906 17.4382 6.35387 16.838 6.35387C16.2378 6.35387 15.7177 6.48906 15.2642 6.7662C14.8108 7.04334 14.4574 7.43539 14.204 7.9491C13.9506 8.45606 13.8239 9.06441 13.8239 9.76739V9.78091C13.8239 10.4771 13.9506 11.0855 14.204 11.5992C14.4574 12.1129 14.8108 12.5117 15.2642 12.7889C15.7177 13.066 16.2445 13.208 16.8447 13.208C17.4448 13.208 17.9716 13.066 18.4251 12.7889C18.8786 12.5117 19.2253 12.1129 19.4787 11.5992C19.7321 11.0855 19.8588 10.4771 19.8588 9.77415V9.76063C19.8588 9.05765 19.7321 8.4493 19.4787 7.94234C19.2253 7.43539 18.8719 7.03658 18.4184 6.75944V6.7662ZM18.7385 9.78091C18.7385 10.2946 18.6585 10.7408 18.5051 11.1058C18.3517 11.4708 18.1317 11.7479 17.8449 11.9439C17.5649 12.1332 17.2314 12.2346 16.8447 12.2346C16.4579 12.2346 16.1245 12.14 15.8377 11.9439C15.551 11.7479 15.3309 11.4708 15.1709 11.1058C15.0108 10.7408 14.9308 10.3014 14.9308 9.78091V9.76739C14.9308 9.25368 15.0108 8.81431 15.1709 8.4493C15.3309 8.08429 15.551 7.80716 15.8377 7.61789C16.1245 7.42863 16.4579 7.32723 16.8313 7.32723C17.2048 7.32723 17.5515 7.42187 17.8383 7.61113C18.125 7.8004 18.3451 8.07753 18.5051 8.44254C18.6652 8.80755 18.7385 9.24692 18.7385 9.76063V9.77415V9.78091Z" fill="#081C15" fill-opacity="0.25"/>
<path d="M27.3075 11.8493H27.2808L25.8071 6.47554H24.7535L23.2798 11.8493H23.2598L21.9527 6.47554H20.8724L22.6929 13.0795H23.7999L25.267 7.96938H25.2936L26.7607 13.0795H27.8743L29.6882 6.47554H28.6145L27.3075 11.8493Z" fill="#081C15" fill-opacity="0.25"/>
<path d="M35.1696 6.7662C34.7428 6.48906 34.2293 6.35387 33.6358 6.35387C33.0423 6.35387 32.5289 6.49582 32.0887 6.78648C31.6486 7.07713 31.3085 7.4827 31.0685 7.99642C30.8284 8.51014 30.7084 9.11173 30.7084 9.79443C30.7084 10.4907 30.8284 11.0922 31.0685 11.5992C31.3085 12.1062 31.6553 12.505 32.1021 12.7821C32.5489 13.0592 33.089 13.2012 33.7092 13.2012C34.0626 13.2012 34.396 13.1539 34.6961 13.0525C35.0029 12.9511 35.2696 12.8159 35.5097 12.6334C35.7497 12.4509 35.9431 12.2481 36.0965 12.0048C36.2499 11.7682 36.3499 11.5113 36.4099 11.241L36.4233 11.1801H35.3496L35.3296 11.2342C35.2696 11.4235 35.1629 11.5924 35.0162 11.7412C34.8695 11.8899 34.6895 12.0048 34.4694 12.0926C34.2493 12.1805 34.0093 12.2211 33.7292 12.2211C33.3358 12.2211 32.9957 12.1332 32.7089 11.9575C32.4222 11.7817 32.1954 11.5316 32.0421 11.2004C31.8954 10.8827 31.8153 10.5109 31.8087 10.0716H36.4966V9.666C36.4966 9.00358 36.3832 8.42902 36.1498 7.92882C35.9231 7.42863 35.5897 7.04334 35.1629 6.7662H35.1696ZM32.7022 7.58409C32.9757 7.41511 33.2891 7.32723 33.6358 7.32723C33.9826 7.32723 34.2893 7.40835 34.5561 7.57057C34.8228 7.7328 35.0362 7.9829 35.1829 8.31411C35.2963 8.56421 35.3696 8.86163 35.3963 9.20636H31.8287C31.862 8.87515 31.9354 8.58449 32.0487 8.34115C32.2088 8.00318 32.4222 7.75308 32.7022 7.57733V7.58409Z" fill="#081C15" fill-opacity="0.25"/>
<path d="M40.6777 6.35387C40.311 6.35387 39.9909 6.46878 39.7242 6.69185C39.4574 6.91491 39.2707 7.21908 39.1573 7.59761H39.1307V6.4823H38.0437V13.0863H39.1307V9.01034C39.1307 8.67912 39.1907 8.38847 39.304 8.15189C39.4174 7.91531 39.5841 7.7328 39.7908 7.60437C39.9976 7.47594 40.2443 7.41511 40.5244 7.41511C40.6577 7.41511 40.7778 7.41511 40.8845 7.43539C40.9912 7.4489 41.0645 7.46242 41.1045 7.4827V6.40795C41.0645 6.40119 41.0045 6.38767 40.9245 6.38091C40.8445 6.36739 40.7578 6.36739 40.6644 6.36739L40.6777 6.35387Z" fill="#081C15" fill-opacity="0.25"/>
<path d="M46.2792 6.7662C45.8524 6.48906 45.3389 6.35387 44.7455 6.35387C44.152 6.35387 43.6385 6.49582 43.1984 6.78648C42.7582 7.07713 42.4182 7.4827 42.1781 7.99642C41.938 8.51014 41.818 9.11173 41.818 9.79443C41.818 10.4907 41.938 11.0922 42.1781 11.5992C42.4182 12.1062 42.7649 12.505 43.2117 12.7821C43.6585 13.0592 44.1986 13.2012 44.8188 13.2012C45.1722 13.2012 45.5057 13.1539 45.8057 13.0525C46.1125 12.9511 46.3792 12.8159 46.6193 12.6334C46.8594 12.4509 47.0527 12.2481 47.2061 12.0048C47.3595 11.7682 47.4595 11.5113 47.5195 11.241L47.5329 11.1801H46.4593L46.4392 11.2342C46.3792 11.4235 46.2725 11.5924 46.1258 11.7412C45.9791 11.8899 45.7991 12.0048 45.579 12.0926C45.359 12.1805 45.1189 12.2211 44.8388 12.2211C44.4454 12.2211 44.1053 12.1332 43.8185 11.9575C43.5318 11.7817 43.3051 11.5316 43.1517 11.2004C43.005 10.8827 42.925 10.5109 42.9183 10.0716H47.6062V9.666C47.6062 9.00358 47.4929 8.42902 47.2595 7.92882C47.0327 7.42863 46.6993 7.04334 46.2725 6.7662H46.2792ZM43.8052 7.58409C44.0786 7.41511 44.392 7.32723 44.7388 7.32723C45.0855 7.32723 45.3923 7.40835 45.659 7.57057C45.9258 7.7328 46.1392 7.9829 46.2859 8.31411C46.3992 8.56421 46.4726 8.86163 46.4993 9.20636H42.9316C42.965 8.87515 43.0383 8.58449 43.1517 8.34115C43.3117 8.00318 43.5251 7.75308 43.8052 7.57733V7.58409Z" fill="#081C15" fill-opacity="0.25"/>
<path d="M53.6946 7.58409H53.6679C53.5345 7.32723 53.3611 7.11093 53.1544 6.92842C52.9477 6.74592 52.7076 6.60397 52.4409 6.50258C52.1742 6.40119 51.8874 6.35387 51.5807 6.35387C51.0405 6.35387 50.5604 6.49582 50.1469 6.77296C49.7335 7.05009 49.4134 7.4489 49.18 7.96262C48.9466 8.47634 48.8333 9.07793 48.8333 9.77415C48.8333 10.4771 48.9466 11.0787 49.18 11.5924C49.4067 12.1062 49.7335 12.505 50.1469 12.7889C50.5604 13.0728 51.0472 13.2079 51.6007 13.2079C51.9141 13.2079 52.2008 13.1539 52.4609 13.0525C52.721 12.9511 52.9544 12.8091 53.1611 12.6266C53.3678 12.4441 53.5345 12.2211 53.6679 11.9642H53.6946V13.0795H54.7815V3.92047H53.6946V7.58409ZM53.7012 9.78091C53.7012 10.2743 53.6212 10.7002 53.4612 11.072C53.3011 11.4437 53.0811 11.7276 52.7943 11.9304C52.5076 12.1332 52.1875 12.2346 51.8141 12.2346C51.4406 12.2346 51.1005 12.1332 50.8205 11.9372C50.5404 11.7411 50.327 11.4573 50.1736 11.0922C50.0202 10.7272 49.9469 10.2879 49.9469 9.78091C49.9469 9.27395 50.0202 8.83459 50.1736 8.46958C50.327 8.10457 50.5404 7.82743 50.8205 7.62465C51.1005 7.42862 51.434 7.32723 51.8141 7.32723C52.1942 7.32723 52.5076 7.42862 52.7877 7.63141C53.0677 7.83419 53.2945 8.11809 53.4545 8.4831C53.6145 8.84811 53.7012 9.28071 53.7012 9.76739V9.78091Z" fill="#081C15" fill-opacity="0.25"/>
<path d="M64.4842 6.77296C64.0708 6.48906 63.5907 6.35387 63.0438 6.35387C62.7371 6.35387 62.4503 6.40119 62.1836 6.50258C61.9169 6.60397 61.6768 6.74592 61.4701 6.92842C61.2634 7.11093 61.09 7.33399 60.9499 7.58409H60.9233V3.92047H59.8363V13.0795H60.9233V11.9642H60.9499C61.09 12.2211 61.2567 12.4441 61.4634 12.6266C61.6701 12.8091 61.8969 12.9511 62.1636 13.0525C62.4303 13.1539 62.7104 13.2079 63.0238 13.2079C63.5773 13.2079 64.0641 13.066 64.4776 12.7889C64.891 12.505 65.2178 12.1129 65.4445 11.5924C65.6712 11.0787 65.7913 10.4771 65.7913 9.78091C65.7913 9.07793 65.6779 8.47634 65.4445 7.96262C65.2111 7.4489 64.891 7.05685 64.4776 6.77296H64.4842ZM64.6776 9.78091C64.6776 10.2811 64.6043 10.7205 64.4509 11.0922C64.2975 11.464 64.0841 11.7411 63.804 11.9372C63.524 12.1332 63.1905 12.2346 62.8104 12.2346C62.4303 12.2346 62.1169 12.1332 61.8368 11.9304C61.5501 11.7276 61.33 11.4437 61.17 11.072C61.01 10.707 60.9299 10.2743 60.9299 9.78091C60.9299 9.28071 61.01 8.85487 61.1767 8.48985C61.3367 8.12485 61.5634 7.84095 61.8435 7.63816C62.1236 7.43538 62.4503 7.33399 62.8171 7.33399C63.1839 7.33399 63.5306 7.43538 63.8107 7.63141C64.0908 7.82743 64.3042 8.11133 64.4576 8.47634C64.6109 8.84135 64.6843 9.27395 64.6843 9.78091H64.6776Z" fill="#081C15" fill-opacity="0.25"/>
<path d="M69.5189 11.9777H69.4922L67.6984 6.4823H66.5314L68.952 13.093L68.8187 13.4648C68.692 13.8366 68.5186 14.0867 68.3119 14.2083C68.1051 14.33 67.8251 14.3908 67.485 14.3908C67.4183 14.3908 67.3516 14.3908 67.2916 14.3773C67.2316 14.3706 67.1782 14.3571 67.1315 14.3503V15.2493C67.2049 15.2628 67.2916 15.2763 67.3983 15.2831C67.505 15.2966 67.6117 15.2966 67.7117 15.2966C68.1051 15.2966 68.4386 15.2358 68.7053 15.1074C68.9787 14.9789 69.2054 14.7829 69.3988 14.5193C69.5922 14.2557 69.7656 13.9109 69.919 13.4918L72.4597 6.47554H71.3127L69.5122 11.971L69.5189 11.9777Z" fill="#081C15" fill-opacity="0.25"/>
<path d="M102.168 8.60476C101.841 8.40874 101.468 8.29383 101.047 8.27355V8.233C101.381 8.18568 101.681 8.07077 101.941 7.8815C102.201 7.69224 102.414 7.45566 102.561 7.17176C102.708 6.88787 102.788 6.57693 102.788 6.2322V6.21868C102.788 5.74552 102.675 5.33995 102.448 4.99522C102.221 4.65049 101.901 4.38687 101.488 4.19761C101.074 4.00834 100.581 3.92047 100.007 3.92047H96.0728V13.0795H100.074C100.721 13.0795 101.274 12.9714 101.741 12.7618C102.208 12.5455 102.568 12.2481 102.821 11.8561C103.075 11.464 103.201 11.0044 103.201 10.4704V10.4569C103.201 10.058 103.108 9.69304 102.921 9.37534C102.735 9.05765 102.481 8.80079 102.154 8.59801L102.168 8.60476ZM99.5337 5.34671C99.9738 5.34671 100.321 5.44811 100.567 5.64413C100.814 5.84015 100.934 6.12405 100.934 6.48906V6.50258C100.934 6.90139 100.794 7.20556 100.521 7.42186C100.247 7.63816 99.8338 7.74632 99.3003 7.74632H97.9799V5.34671H99.5337ZM101.281 10.3487C101.281 10.7745 101.134 11.0922 100.847 11.3153C100.561 11.5384 100.147 11.6465 99.607 11.6465H97.9799V9.04413H99.527C99.9138 9.04413 100.234 9.09145 100.494 9.19284C100.754 9.28747 100.954 9.43618 101.081 9.62544C101.207 9.81471 101.281 10.0513 101.281 10.3352V10.3487Z" fill="#081C15" fill-opacity="0.25"/>
<path d="M110.857 9.89582C110.777 10.2608 110.643 10.5718 110.45 10.8286C110.257 11.0855 110.023 11.2815 109.737 11.4167C109.45 11.5519 109.13 11.6195 108.763 11.6195C108.283 11.6195 107.863 11.4911 107.509 11.241C107.149 10.9909 106.876 10.6326 106.682 10.1594C106.489 9.68628 106.389 9.13876 106.389 8.48986C106.389 7.84771 106.489 7.29344 106.682 6.83379C106.876 6.37415 107.149 6.0159 107.509 5.7658C107.869 5.5157 108.283 5.38727 108.77 5.38727C109.143 5.38727 109.476 5.45487 109.757 5.59682C110.037 5.73876 110.277 5.92803 110.457 6.17813C110.643 6.42823 110.77 6.71888 110.837 7.06362L110.863 7.17177H112.711V7.11093C112.644 6.46203 112.444 5.88747 112.097 5.38051C111.75 4.88032 111.29 4.48151 110.717 4.19085C110.143 3.9002 109.49 3.75825 108.763 3.75825C107.883 3.75825 107.116 3.94751 106.476 4.32604C105.829 4.70457 105.335 5.24533 104.982 5.94831C104.628 6.65129 104.455 7.49622 104.455 8.4831C104.455 9.47674 104.628 10.3217 104.982 11.0314C105.335 11.7411 105.829 12.2819 106.476 12.6604C107.122 13.039 107.883 13.235 108.763 13.235C109.496 13.235 110.143 13.093 110.717 12.8091C111.29 12.5252 111.75 12.1264 112.097 11.6262C112.444 11.1193 112.651 10.5447 112.711 9.89582V9.82823H110.87L110.857 9.88906V9.89582Z" fill="#081C15" fill-opacity="0.25"/>
<path d="M116.225 3.92047H114.331V13.0795H116.225V3.92047Z" fill="#081C15" fill-opacity="0.25"/>
<path d="M118.059 17H4.94801C2.2206 17 0 15.1209 0 12.8024V4.19085C0 1.87912 2.2206 0 4.94801 0H118.059C120.786 0 123.007 1.87912 123.007 4.19085V12.8024C123.007 15.1141 120.786 17 118.059 17ZM4.94801 0.743539C2.62738 0.743539 0.733532 2.29145 0.733532 4.19085V12.8024C0.733532 14.7018 2.62071 16.2497 4.94801 16.2497H118.059C120.379 16.2497 122.273 14.7018 122.273 12.8024V4.19085C122.273 2.29145 120.386 0.743539 118.059 0.743539H4.94801Z" fill="#081C15" fill-opacity="0.25"/>
<path fill-rule="evenodd" clip-rule="evenodd" d="M94.2522 2.57534C94.2055 2.56859 94.1255 2.5821 94.0188 2.59562C93.9188 2.60914 93.7988 2.6159 93.292 2.63618C92.7852 2.65646 91.8983 2.69026 91.1714 2.70377C90.4445 2.72405 89.871 2.73081 89.4376 2.73081C89.0975 2.73081 88.8308 2.73081 88.6574 2.73081C88.664 2.70377 88.6707 2.66998 88.6774 2.64294C88.6907 2.56183 88.6974 2.48747 88.7041 2.41312C88.7041 2.34552 88.7041 2.27793 88.6974 2.24413C88.6841 2.21033 88.6574 2.19682 88.624 2.21033C88.5907 2.22385 88.544 2.25089 88.484 2.29821C88.424 2.33876 88.3506 2.39284 88.2773 2.44016C88.2039 2.48747 88.1172 2.53479 88.0172 2.59562C87.9105 2.6497 87.7838 2.71729 87.6504 2.76461C87.5171 2.81868 87.3904 2.85248 87.2303 2.88628C87.077 2.92008 86.8902 2.96063 86.7569 2.98091C86.6235 3.00795 86.5368 3.02147 86.4568 3.06203C86.3834 3.10258 86.3167 3.16342 86.2834 3.22425C86.2434 3.28509 86.2367 3.35268 86.2301 3.42028C86.2234 3.48787 86.2167 3.5487 86.2634 3.67713C86.3101 3.7988 86.3968 3.98131 86.4568 4.10298C86.5101 4.22465 86.5301 4.29224 86.5368 4.38012C86.5368 4.46799 86.5301 4.5829 86.4901 4.67753C86.4501 4.77216 86.3901 4.85328 86.3101 4.93439C86.2234 5.00874 86.1167 5.0831 86.0233 5.13717C85.93 5.19125 85.85 5.23181 85.7633 5.2656C85.6699 5.2994 85.5699 5.32644 85.4698 5.36024C85.3698 5.38727 85.2698 5.42107 85.1564 5.45487C85.0431 5.48867 84.9164 5.52246 84.7697 5.54274C84.623 5.56302 84.4562 5.56978 84.3829 5.57654C84.3095 5.57654 84.3229 5.5833 84.2362 5.5833C84.1495 5.5833 83.9628 5.5833 83.7961 5.56978C83.6227 5.55626 83.4693 5.54274 83.3293 5.52246C83.1892 5.50218 83.0692 5.47515 82.9358 5.44811C82.8091 5.42107 82.6691 5.38727 82.5557 5.36024C82.4424 5.3332 82.3423 5.30616 82.2556 5.27236C82.169 5.23857 82.0889 5.19801 81.9822 5.13041C81.8755 5.06282 81.7355 4.97495 81.6555 4.88707C81.5755 4.7992 81.5555 4.71809 81.5354 4.64373C81.5154 4.56938 81.4954 4.50179 81.4888 4.43419C81.4888 4.3666 81.5021 4.29224 81.5354 4.21789C81.5688 4.14354 81.6288 4.07594 81.6755 3.99483C81.7222 3.91371 81.7622 3.8326 81.7955 3.74473C81.8289 3.65686 81.8489 3.56898 81.8489 3.48111C81.8489 3.39324 81.8422 3.31888 81.8155 3.23777C81.7889 3.16342 81.7488 3.08906 81.6822 3.04175C81.6155 2.98767 81.5154 2.95387 81.4154 2.94035C81.3154 2.92684 81.222 2.92684 81.1153 2.91332C81.0153 2.90656 80.9153 2.88628 80.8019 2.85924C80.6952 2.8322 80.5752 2.79165 80.4618 2.75109C80.3485 2.71053 80.2351 2.66998 80.1217 2.6159C80.0084 2.56183 79.8883 2.50099 79.7883 2.44692C79.6883 2.39284 79.6016 2.33876 79.5349 2.29821C79.4682 2.25765 79.4082 2.23061 79.3749 2.23737C79.3349 2.24413 79.3148 2.29145 79.3082 2.34552C79.3015 2.40636 79.3082 2.48071 79.3349 2.54831C79.3549 2.60238 79.3882 2.65646 79.4215 2.71053C79.2415 2.71053 78.9814 2.71053 78.6347 2.71053C78.1945 2.71053 77.6277 2.70377 76.9009 2.6835C76.174 2.66322 75.2871 2.63618 74.7803 2.6159C74.2735 2.59562 74.1535 2.5821 74.0534 2.57534C73.9534 2.56183 73.8667 2.54831 73.82 2.55507C73.7733 2.56183 73.76 2.58886 73.76 2.62266C73.76 2.65646 73.7733 2.69026 73.8134 2.75109C73.8534 2.80517 73.9201 2.88628 74.0001 2.96739C74.0801 3.04851 74.1735 3.13638 74.2668 3.20397C74.3535 3.27157 74.4402 3.32564 74.5602 3.39324C74.6803 3.46083 74.8403 3.5487 74.987 3.60278C75.1337 3.65686 75.2738 3.67713 75.4738 3.69065C75.6739 3.70417 75.9273 3.70417 76.2607 3.71093C76.5941 3.71093 76.9942 3.71093 77.3877 3.71093C77.7811 3.70417 78.1679 3.69065 78.5213 3.67037C78.8747 3.65686 79.1815 3.63658 79.5149 3.60954C79.8483 3.5825 80.1951 3.55546 80.4218 3.52167C80.5418 3.50139 80.6219 3.48787 80.6819 3.46759C80.7286 3.49463 80.7752 3.52167 80.8019 3.55546C80.8019 3.55546 80.8086 3.56898 80.8153 3.57574C80.6752 3.59602 80.4818 3.62982 80.2684 3.65686C79.9617 3.69741 79.5949 3.72445 79.2215 3.75149C78.8414 3.77853 78.4479 3.7988 77.9945 3.81232C77.541 3.82584 77.0209 3.82584 76.5808 3.8326C76.134 3.83936 75.7672 3.85288 75.4338 3.85964C75.1004 3.8664 74.807 3.87316 74.6536 3.87992C74.5002 3.87992 74.4802 3.87992 74.4735 3.91371C74.4735 3.94751 74.4735 4.02187 74.5002 4.09622C74.5269 4.17057 74.5669 4.23817 74.6336 4.3328C74.7003 4.42743 74.787 4.54234 74.8803 4.62346C74.9737 4.71133 75.0737 4.7654 75.2204 4.82624C75.3738 4.88707 75.5738 4.94791 75.7806 4.98171C75.9873 5.0155 76.1873 5.02226 76.3874 5.02226C76.5874 5.02226 76.7875 5.00874 77.0476 4.97495C77.3143 4.94115 77.6411 4.88707 77.9678 4.833C78.2946 4.77892 78.6213 4.73837 78.9614 4.67753C79.2948 4.62346 79.6416 4.55586 79.9817 4.49503C80.2351 4.44771 80.4885 4.40715 80.6752 4.3666C80.6752 4.38688 80.6819 4.40715 80.6819 4.42743C80.4485 4.46799 80.1084 4.54234 79.7216 4.62346C79.2082 4.72485 78.608 4.833 78.0212 4.94115C77.441 5.0493 76.8742 5.15745 76.4607 5.21829C76.0406 5.27912 75.7672 5.30616 75.6005 5.31292C75.4271 5.32644 75.3604 5.32644 75.3538 5.37375C75.3404 5.42107 75.3871 5.50218 75.4738 5.59006C75.5538 5.67793 75.6739 5.77256 75.8406 5.86043C76.0006 5.94831 76.214 6.04294 76.4274 6.09026C76.6475 6.13757 76.8742 6.15109 77.1476 6.13757C77.421 6.12405 77.7411 6.09026 78.0212 6.02266C78.3012 5.96183 78.5346 5.86719 78.8481 5.75228C79.1615 5.63737 79.5482 5.50218 79.8483 5.38727C80.1484 5.27236 80.3485 5.17097 80.5418 5.08986C80.6085 5.06282 80.6752 5.03578 80.7352 5.00874C80.7486 5.0493 80.7686 5.08986 80.8153 5.14393C80.6619 5.18449 80.4618 5.2656 80.2284 5.36024C79.9283 5.48191 79.5749 5.62385 79.3148 5.732C79.0548 5.84016 78.8881 5.90775 78.6813 5.98886C78.468 6.06998 78.2145 6.15785 78.0145 6.21869C77.8144 6.27952 77.6677 6.32008 77.5344 6.36063C77.4077 6.40119 77.2943 6.43499 77.1876 6.45527C77.0809 6.4823 76.9742 6.49582 76.9142 6.5161C76.8542 6.53638 76.8275 6.56342 76.8942 6.61073C76.9542 6.66481 77.1076 6.73916 77.2876 6.82704C77.4677 6.90815 77.6811 7.00278 77.8878 7.04334C78.0945 7.09065 78.2879 7.09065 78.468 7.05686C78.648 7.02982 78.8214 6.96898 78.9948 6.89463C79.1681 6.81352 79.3415 6.71212 79.4949 6.61749C79.6483 6.52286 79.795 6.43499 79.915 6.35387C80.0417 6.27276 80.1484 6.20517 80.2551 6.12405C80.3618 6.0497 80.4685 5.96859 80.5685 5.87395C80.6685 5.78608 80.7686 5.69145 80.8819 5.57654C80.9553 5.50218 81.0286 5.42783 81.0953 5.36024C81.142 5.40079 81.1687 5.43459 81.182 5.45487C81.1087 5.5157 81.042 5.59006 80.9686 5.66441C80.8486 5.78608 80.7152 5.91451 80.5552 6.04294C80.3951 6.17813 80.2018 6.32008 80.0217 6.45527C79.8417 6.59045 79.6683 6.71212 79.5082 6.83379C79.3482 6.95546 79.2015 7.07038 79.0748 7.16501C78.9481 7.25288 78.8347 7.32047 78.748 7.36103C78.6613 7.40159 78.6013 7.42187 78.588 7.46918C78.5746 7.5165 78.608 7.58409 78.668 7.63141C78.728 7.67873 78.8147 7.69224 78.9147 7.71252C79.0148 7.7328 79.1281 7.75984 79.2948 7.78012C79.4616 7.8004 79.6816 7.81391 79.8283 7.79364C79.975 7.78012 80.055 7.7328 80.1417 7.66521C80.2351 7.59085 80.3418 7.48946 80.4485 7.38131C80.5552 7.27316 80.6485 7.15825 80.7419 7.03658C80.8353 6.91491 80.922 6.77972 81.0086 6.64453C81.102 6.50934 81.1954 6.36739 81.2687 6.23896C81.3421 6.11053 81.3954 5.9821 81.4688 5.84692C81.4954 5.7996 81.5221 5.75228 81.5488 5.71173C81.5755 5.71849 81.6088 5.72525 81.6421 5.732C81.6221 5.7658 81.6088 5.7996 81.5955 5.84016C81.5555 5.93479 81.5488 6.02942 81.4754 6.17813C81.4021 6.3336 81.2754 6.5499 81.1553 6.75944C81.0353 6.96898 80.9153 7.15825 80.8153 7.32047C80.7152 7.4827 80.6285 7.61113 80.5685 7.699C80.5085 7.78688 80.4685 7.84095 80.4352 7.88827C80.4018 7.93558 80.3751 7.98966 80.3818 8.03022C80.3885 8.07077 80.4285 8.09781 80.5085 8.11133C80.5885 8.12485 80.7152 8.12485 80.8553 8.09781C80.9953 8.07753 81.142 8.03022 81.2554 7.96938C81.3754 7.90855 81.4621 7.82067 81.5421 7.72604C81.6221 7.63141 81.6888 7.53002 81.7355 7.42863C81.7889 7.32723 81.8222 7.2326 81.8489 7.13121C81.8822 7.02982 81.9089 6.93519 81.9289 6.78648C81.9489 6.64453 81.9622 6.45527 81.9822 6.24572C81.9956 6.12405 82.0089 5.98886 82.0156 5.88071C82.0423 5.88071 82.0756 5.88071 82.1023 5.89423C82.1156 5.89423 82.1289 5.90775 82.1423 5.91451C82.1289 6.02266 82.1223 6.16461 82.1089 6.266C82.0956 6.40119 82.0823 6.47554 82.0756 6.59721C82.0623 6.71888 82.0556 6.89463 82.0423 7.02982C82.0356 7.16501 82.0222 7.25964 82.0022 7.36103C81.9822 7.46918 81.9556 7.58409 81.9289 7.67872C81.9022 7.77336 81.8755 7.85447 81.8555 7.91531C81.8355 7.97614 81.8289 8.03022 81.8222 8.07077C81.8222 8.11133 81.8089 8.13837 81.8489 8.13161C81.8889 8.12485 81.9756 8.07753 82.0489 8.00994C82.1223 7.94234 82.1823 7.86123 82.2356 7.78688C82.289 7.70576 82.3357 7.63141 82.3757 7.54354C82.4157 7.45566 82.449 7.35427 82.4824 7.25288C82.5157 7.15825 82.5424 7.06362 82.5624 6.96898C82.5824 6.87435 82.5957 6.77296 82.6024 6.66481C82.6024 6.55666 82.6091 6.44175 82.6091 6.35387C82.6091 6.266 82.6091 6.20517 82.6091 6.11729C82.6091 6.09702 82.6091 6.06998 82.6091 6.0497C82.6424 6.06998 82.6758 6.09026 82.6958 6.13757C82.7358 6.21193 82.7691 6.32684 82.7891 6.4823C82.8091 6.63777 82.8158 6.82704 82.8158 6.98926C82.8158 7.15149 82.8158 7.27992 82.7825 7.42863C82.7491 7.57733 82.6824 7.74632 82.5891 7.92882C82.4957 8.11133 82.3823 8.30059 82.2623 8.46282C82.149 8.62505 82.0289 8.76024 81.9089 8.87515C81.7889 8.99682 81.6555 9.09821 81.5354 9.18608C81.4154 9.27395 81.3021 9.34155 81.2154 9.3821C81.1287 9.42266 81.062 9.42266 81.022 9.43618C80.982 9.4497 80.9686 9.47674 80.9886 9.49702C81.002 9.51729 81.0487 9.54433 81.0953 9.55785C81.1487 9.57813 81.2087 9.59165 81.2687 9.63896C81.3354 9.68628 81.4087 9.76063 81.4888 9.83499C81.4954 9.84175 81.5021 9.84851 81.5154 9.85527C81.4954 9.88906 81.4688 9.92286 81.4421 9.95666C81.3887 10.0175 81.3287 10.0851 81.262 10.1459C81.1887 10.2 81.1153 10.2473 81.0153 10.2744C80.9219 10.3014 80.8086 10.3149 80.7152 10.3014C80.6219 10.2879 80.5418 10.2541 80.4685 10.2C80.3951 10.1459 80.3285 10.0716 80.2818 9.99721C80.2284 9.92286 80.1884 9.84175 80.1551 9.77415C80.1151 9.6998 80.0817 9.6322 80.0484 9.55785C80.0084 9.4835 79.9684 9.40238 79.9217 9.36183C79.8683 9.31451 79.8083 9.30099 79.755 9.29423C79.7016 9.29423 79.6616 9.30775 79.6149 9.34155C79.5682 9.37535 79.5216 9.43618 79.5016 9.49026C79.4816 9.54433 79.4882 9.59165 79.4816 9.6322C79.4816 9.67952 79.4682 9.72008 79.4816 9.72008C79.4882 9.72008 79.5216 9.68628 79.5549 9.64572C79.5949 9.60517 79.6349 9.56461 79.6683 9.53757C79.7016 9.51729 79.7283 9.51053 79.755 9.51053C79.7816 9.51053 79.8083 9.51053 79.815 9.54433C79.8217 9.57137 79.815 9.6322 79.815 9.67952C79.815 9.7336 79.815 9.77415 79.8217 9.82147C79.835 9.86878 79.855 9.9161 79.8883 9.96342C79.9217 10.004 79.9617 10.0445 80.0084 10.0851C80.0551 10.1256 80.1084 10.1594 80.1484 10.2C80.1884 10.2406 80.2084 10.2811 80.1884 10.2946C80.1617 10.3081 80.0951 10.2879 80.0284 10.2608C79.9617 10.2338 79.9017 10.2068 79.815 10.1932C79.7283 10.1797 79.6283 10.1797 79.5349 10.1662C79.4415 10.1527 79.3682 10.1256 79.3082 10.1324C79.2482 10.1324 79.1948 10.173 79.1681 10.2203C79.1348 10.2676 79.1215 10.3284 79.1215 10.3893C79.1215 10.4501 79.1281 10.5109 79.1481 10.5718C79.1615 10.6326 79.1881 10.6934 79.2015 10.761C79.2148 10.8219 79.2282 10.8827 79.2415 10.8895C79.2548 10.8962 79.2682 10.8489 79.2815 10.7881C79.2948 10.7272 79.3082 10.6529 79.3082 10.5853C79.3082 10.5177 79.3082 10.4569 79.3215 10.4163C79.3349 10.3757 79.3749 10.3622 79.4149 10.3757C79.4482 10.3893 79.4816 10.4366 79.5282 10.4704C79.5749 10.5042 79.6349 10.5177 79.7016 10.5245C79.7683 10.5245 79.8483 10.5245 79.9283 10.5245C80.0084 10.5245 80.0884 10.5245 80.1417 10.5245C80.1951 10.5245 80.2151 10.538 80.2084 10.565C80.2084 10.592 80.1751 10.6258 80.1284 10.6529C80.0817 10.6867 80.015 10.7137 79.9617 10.7475C79.9083 10.7881 79.855 10.8354 79.8083 10.8895C79.7616 10.9435 79.7083 10.9976 79.6683 11.0382C79.6283 11.0855 79.6083 11.1193 79.5949 11.1666C79.5883 11.2139 79.5949 11.268 79.6149 11.3221C79.6349 11.3761 79.6683 11.4235 79.7216 11.4505C79.775 11.4708 79.855 11.4708 79.9083 11.4505C79.9617 11.437 79.9884 11.4167 79.9884 11.3897C79.9884 11.3626 79.9617 11.3491 79.935 11.3288C79.9083 11.3085 79.8817 11.295 79.8683 11.2612C79.855 11.2274 79.855 11.1801 79.875 11.1463C79.895 11.1125 79.935 11.099 80.0084 11.0517C80.0817 11.0044 80.1884 10.93 80.2818 10.8557C80.3751 10.7813 80.4618 10.7002 80.5352 10.6529C80.6085 10.5988 80.6819 10.5718 80.7286 10.5785C80.7752 10.592 80.8019 10.6461 80.8153 10.6934C80.8286 10.7475 80.8353 10.7948 80.8619 10.8286C80.8886 10.8624 80.9353 10.8759 80.9886 10.8759C81.042 10.8759 81.0953 10.8624 81.162 10.8489C81.2287 10.8354 81.3154 10.8286 81.3821 10.8421C81.4488 10.8489 81.5021 10.8759 81.5354 10.9165C81.5755 10.9571 81.5955 11.0111 81.5955 11.0787C81.5955 11.1396 81.5755 11.2072 81.5688 11.2612C81.5621 11.3153 81.5688 11.3559 81.6021 11.3423C81.6355 11.3288 81.6955 11.268 81.7422 11.2004C81.7889 11.1396 81.8155 11.072 81.8155 11.0111C81.8155 10.9435 81.7755 10.8759 81.7222 10.8151C81.6688 10.7543 81.5888 10.707 81.5154 10.6867C81.4421 10.6596 81.3687 10.6529 81.3154 10.6394C81.262 10.6258 81.222 10.6123 81.202 10.592C81.182 10.5718 81.182 10.5447 81.2154 10.5042C81.2487 10.4704 81.3087 10.4231 81.3754 10.3825C81.4421 10.3419 81.5088 10.3014 81.5755 10.2541C81.6421 10.2068 81.7022 10.1594 81.7488 10.1189C81.7622 10.1054 81.7688 10.0986 81.7755 10.0918C81.8355 10.1662 81.8889 10.2473 81.9222 10.3217C81.9556 10.4028 81.9689 10.4771 82.0022 10.5109C82.0356 10.5447 82.0889 10.5447 82.1289 10.5109C82.1623 10.4704 82.1823 10.396 82.2023 10.3217C82.229 10.2473 82.2556 10.1662 82.289 10.0851C82.3223 10.004 82.3557 9.92286 82.389 9.84851C82.4224 9.77415 82.4624 9.70656 82.509 9.63896C82.5557 9.56461 82.6024 9.49026 82.6558 9.42266C82.7091 9.34831 82.7625 9.28747 82.8158 9.25368C82.8691 9.22664 82.9158 9.22664 82.9625 9.25368C83.0092 9.28071 83.0425 9.33479 83.0559 9.40914C83.0692 9.4835 83.0559 9.57813 83.0225 9.67276C82.9958 9.76739 82.9558 9.86203 82.9225 9.95666C82.8891 10.0513 82.8558 10.1459 82.8025 10.2406C82.7491 10.3352 82.6691 10.4231 82.6357 10.4771C82.6024 10.5312 82.6157 10.538 82.6758 10.5447C82.6958 10.5447 82.7224 10.5447 82.7491 10.5447C82.7491 10.5447 82.7491 10.5582 82.7424 10.565C82.7024 10.6799 82.6758 10.8151 82.6357 10.9571C82.5957 11.1058 82.5424 11.2612 82.489 11.4167C82.4357 11.5722 82.3757 11.7276 82.3157 11.8493C82.2556 11.971 82.1956 12.0521 82.1756 12.0994C82.1556 12.1467 82.1756 12.1602 82.2423 12.1535C82.2823 12.1535 82.349 12.1467 82.4157 12.14C82.4023 12.167 82.389 12.194 82.3757 12.2278C82.2957 12.4103 82.229 12.5658 82.1289 12.7415C82.0356 12.9173 81.9089 13.1133 81.7755 13.2891C81.6421 13.4648 81.4954 13.627 81.3554 13.7217C81.2087 13.8163 81.0687 13.8569 81.0153 13.8839C80.962 13.9109 80.9953 13.938 81.0753 13.9785C81.1553 14.0191 81.2754 14.0664 81.4088 14.0934C81.5421 14.1205 81.6888 14.134 81.8022 14.1205C81.9156 14.107 82.0089 14.0799 82.1023 14.0394C82.1956 13.9988 82.2957 13.9515 82.349 13.9582C82.4024 13.9718 82.4157 14.0461 82.3623 14.1137C82.3157 14.1813 82.2023 14.2354 82.209 14.2692C82.209 14.303 82.3357 14.3097 82.4757 14.303C82.6157 14.303 82.7825 14.2827 82.9025 14.2489C83.0225 14.2151 83.1025 14.161 83.1626 14.0529C83.2226 13.9447 83.2759 13.7825 83.3159 13.6946C83.3559 13.6068 83.3893 13.6 83.416 13.627C83.4426 13.6473 83.4626 13.7014 83.476 13.7757C83.4893 13.8501 83.4893 13.938 83.5093 14.0258C83.5227 14.1137 83.556 14.1881 83.5893 14.2827C83.6293 14.3773 83.676 14.4787 83.7427 14.5666C83.8094 14.6545 83.8894 14.7153 83.9694 14.7153C84.0495 14.7153 84.1295 14.6545 84.2028 14.5869C84.2695 14.5193 84.3295 14.4517 84.3762 14.3773C84.4229 14.303 84.4562 14.2151 84.4762 14.1137C84.4963 14.0123 84.4963 13.8974 84.5029 13.7893C84.5029 13.6811 84.5029 13.5797 84.5163 13.5054C84.5296 13.4378 84.5496 13.3972 84.5763 13.3905C84.6029 13.3837 84.6363 13.3972 84.663 13.4445C84.6896 13.4851 84.723 13.5527 84.7563 13.6406C84.7963 13.7284 84.843 13.8366 84.923 13.9447C85.0031 14.0529 85.1164 14.1475 85.2298 14.2219C85.3431 14.2962 85.4632 14.3435 85.6032 14.3773C85.7433 14.4044 85.9033 14.4179 85.9633 14.4044C86.0233 14.3909 85.9833 14.3571 85.9366 14.303C85.89 14.2489 85.85 14.1813 85.7966 14.1205C85.7499 14.0596 85.6966 13.9988 85.6499 13.9109C85.6032 13.8231 85.5632 13.7149 85.5632 13.6541C85.5632 13.5932 85.5832 13.573 85.6366 13.6135C85.6899 13.6541 85.7633 13.7555 85.8433 13.8366C85.9233 13.9244 86.0033 13.992 86.13 14.0394C86.2567 14.0867 86.4234 14.1137 86.6035 14.1272C86.7835 14.1408 86.9703 14.1408 87.0436 14.1272C87.117 14.1137 87.077 14.0867 87.0036 14.0258C86.9302 13.965 86.8302 13.8636 86.7302 13.7555C86.6302 13.6473 86.5368 13.5256 86.4368 13.3905C86.3367 13.2553 86.2367 13.1066 86.1367 12.9579C86.0367 12.8091 85.93 12.6537 85.8233 12.4441C85.8033 12.4036 85.7766 12.3563 85.7499 12.3089C85.8433 12.3089 85.9433 12.3157 85.9967 12.3089C86.0567 12.2954 86.0433 12.2616 86.0033 12.2211C85.97 12.1805 85.9166 12.1264 85.8366 12.0183C85.7566 11.9101 85.6566 11.7412 85.5699 11.5586C85.4832 11.3829 85.4032 11.1936 85.3365 10.9706C85.2965 10.8354 85.2565 10.6934 85.2231 10.565C85.2565 10.5718 85.2831 10.5785 85.3031 10.5718C85.3431 10.565 85.3365 10.5109 85.3098 10.4569C85.2831 10.396 85.2498 10.3284 85.2098 10.2338C85.1698 10.1392 85.1231 10.0243 85.0831 9.90934C85.0431 9.80119 85.0031 9.69304 84.9897 9.57813C84.9697 9.46322 84.9764 9.33479 85.0031 9.27395C85.0364 9.20636 85.0964 9.1996 85.1564 9.21988C85.2231 9.2334 85.2898 9.27395 85.3565 9.33479C85.4232 9.40238 85.4965 9.49702 85.5632 9.61193C85.6366 9.7336 85.7099 9.87554 85.7566 10.004C85.8033 10.1324 85.8233 10.2541 85.85 10.3352C85.8833 10.4163 85.9233 10.4636 85.9766 10.4907C86.03 10.5109 86.0967 10.5109 86.1367 10.4636C86.1767 10.4231 86.19 10.3352 86.2034 10.2608C86.2167 10.1865 86.2367 10.1189 86.2901 10.031C86.3167 10.058 86.3368 10.0783 86.3701 10.1121C86.4101 10.1527 86.4768 10.2 86.5435 10.2473C86.6102 10.2946 86.6835 10.3352 86.7435 10.3757C86.8102 10.4163 86.8702 10.4569 86.9036 10.4974C86.9369 10.5312 86.9369 10.5582 86.9169 10.5853C86.8969 10.6056 86.8569 10.6191 86.8035 10.6326C86.7502 10.6461 86.6768 10.6529 86.6035 10.6799C86.5301 10.707 86.4501 10.7543 86.3968 10.8083C86.3434 10.8692 86.3034 10.9368 86.3034 11.0044C86.3034 11.072 86.3301 11.1328 86.3768 11.1936C86.4234 11.2545 86.4835 11.3221 86.5168 11.3356C86.5501 11.3491 86.5568 11.3085 86.5501 11.2545C86.5435 11.2004 86.5168 11.1328 86.5235 11.072C86.5235 11.0111 86.5501 10.9503 86.5835 10.9097C86.6235 10.8692 86.6702 10.8421 86.7369 10.8354C86.8035 10.8286 86.8902 10.8354 86.9569 10.8421C87.0236 10.8557 87.0836 10.8692 87.1303 10.8692C87.177 10.8692 87.2303 10.8557 87.257 10.8219C87.2837 10.7881 87.2837 10.7408 87.3037 10.6867C87.317 10.6326 87.3437 10.5785 87.3904 10.5718C87.4371 10.5582 87.5104 10.592 87.5838 10.6461C87.6571 10.7002 87.7438 10.7745 87.8372 10.8489C87.9305 10.9233 88.0372 10.9976 88.1106 11.0449C88.1839 11.0922 88.2239 11.1058 88.2439 11.1396C88.2639 11.1734 88.2639 11.2207 88.2506 11.2545C88.2373 11.2883 88.2106 11.3085 88.1839 11.3221C88.1572 11.3423 88.1306 11.3626 88.1306 11.3829C88.1306 11.4032 88.1572 11.4302 88.2106 11.4437C88.2639 11.4573 88.344 11.4573 88.3973 11.4437C88.4507 11.4235 88.484 11.3694 88.504 11.3153C88.524 11.2612 88.5307 11.2072 88.524 11.1598C88.5173 11.1125 88.4907 11.0787 88.4507 11.0314C88.4106 10.9841 88.364 10.93 88.3106 10.8827C88.2639 10.8286 88.2173 10.7813 88.1572 10.7408C88.1039 10.7002 88.0372 10.6732 87.9905 10.6461C87.9439 10.6123 87.9172 10.5785 87.9105 10.5582C87.9105 10.5312 87.9305 10.5245 87.9772 10.5177C88.0305 10.5177 88.1106 10.5177 88.1906 10.5177C88.2706 10.5177 88.3506 10.5177 88.4173 10.5177C88.484 10.5177 88.544 10.4974 88.5907 10.4636C88.6374 10.4298 88.6707 10.3825 88.7041 10.369C88.7374 10.3555 88.7774 10.369 88.7974 10.4095C88.8108 10.4501 88.8041 10.5109 88.8108 10.5785C88.8108 10.6461 88.8241 10.7205 88.8374 10.7813C88.8508 10.8421 88.8641 10.8895 88.8774 10.8827C88.8908 10.8759 88.9041 10.8151 88.9174 10.7543C88.9375 10.6934 88.9575 10.6326 88.9708 10.565C88.9841 10.5042 88.9975 10.4433 88.9975 10.3825C88.9975 10.3217 88.9841 10.2608 88.9508 10.2135C88.9175 10.1662 88.8708 10.1256 88.8108 10.1256C88.7507 10.1256 88.6707 10.1459 88.584 10.1594C88.4907 10.173 88.3906 10.173 88.304 10.1865C88.2173 10.2 88.1572 10.2338 88.0906 10.2541C88.0239 10.2811 87.9505 10.3014 87.9305 10.2879C87.9038 10.2744 87.9305 10.2338 87.9705 10.1932C88.0105 10.1527 88.0639 10.1189 88.1106 10.0783C88.1572 10.0378 88.2039 10.004 88.2306 9.95666C88.2639 9.9161 88.2839 9.86203 88.2973 9.81471C88.3106 9.76739 88.3106 9.72008 88.304 9.67276C88.304 9.62545 88.2906 9.56461 88.304 9.53757C88.3106 9.51053 88.3373 9.50378 88.364 9.50378C88.3906 9.50378 88.4173 9.50378 88.4507 9.53081C88.484 9.55109 88.5307 9.59841 88.564 9.63896C88.604 9.67952 88.6307 9.71332 88.6374 9.71332C88.644 9.71332 88.6374 9.666 88.6374 9.62544C88.6374 9.57813 88.6374 9.53757 88.6174 9.4835C88.5974 9.42942 88.5507 9.37535 88.504 9.33479C88.4573 9.30099 88.4173 9.28747 88.364 9.28747C88.3106 9.28747 88.2506 9.30775 88.1973 9.35507C88.1439 9.40238 88.1039 9.4835 88.0706 9.55109C88.0305 9.62544 87.9972 9.69304 87.9639 9.76739C87.9239 9.84175 87.8905 9.9161 87.8372 9.99045C87.7838 10.0648 87.7171 10.1392 87.6504 10.1932C87.5771 10.2473 87.4971 10.2811 87.4037 10.2946C87.3104 10.3081 87.197 10.2946 87.1036 10.2676C87.0103 10.2406 86.9302 10.1932 86.8569 10.1392C86.7835 10.0851 86.7235 10.0175 86.6768 9.9499C86.6235 9.88906 86.5902 9.82823 86.5568 9.77415C86.5568 9.77415 86.5568 9.77415 86.5501 9.76739C86.6502 9.68628 86.7702 9.62544 86.8702 9.59165C86.9703 9.55785 87.0503 9.54433 87.0636 9.51729C87.0836 9.4835 87.0369 9.42942 86.9836 9.40238C86.9302 9.37535 86.8702 9.36859 86.7702 9.32803C86.6635 9.28071 86.5168 9.19284 86.3634 9.07793C86.21 8.95626 86.0633 8.80755 85.93 8.6656C85.7966 8.52366 85.6832 8.38847 85.6099 8.24652C85.5299 8.10457 85.4832 7.95586 85.4432 7.82743C85.4032 7.699 85.3698 7.58409 85.3498 7.46918C85.3231 7.34751 85.3098 7.22584 85.3098 7.07037C85.3098 6.91491 85.3098 6.72564 85.3165 6.5499C85.3231 6.37415 85.3298 6.21869 85.3632 6.13757C85.3898 6.05646 85.4365 6.0497 85.5032 6.0497C85.5032 6.07674 85.5032 6.10378 85.5032 6.12405C85.5032 6.21193 85.5032 6.27276 85.5032 6.36063C85.5032 6.44851 85.5032 6.56342 85.5099 6.67157C85.5099 6.77972 85.5232 6.88111 85.5499 6.97574C85.5699 7.07037 85.6032 7.16501 85.6299 7.25964C85.6632 7.35427 85.6966 7.46242 85.7366 7.5503C85.7766 7.63817 85.8233 7.71252 85.8766 7.79364C85.93 7.87475 85.99 7.95586 86.0633 8.0167C86.1367 8.08429 86.2234 8.13161 86.2634 8.13837C86.3034 8.14513 86.2967 8.11809 86.2901 8.07753C86.2901 8.03698 86.2767 7.98966 86.2567 7.92207C86.2367 7.86123 86.2101 7.78012 86.1834 7.68548C86.1567 7.59085 86.13 7.47594 86.11 7.36779C86.09 7.25964 86.0834 7.17177 86.07 7.03658C86.0633 6.90139 86.05 6.72564 86.0367 6.60397C86.0233 6.4823 86.01 6.40795 86.0033 6.27276C85.9967 6.16461 85.9833 6.00914 85.97 5.90099C86.01 5.88747 86.0567 5.86719 86.09 5.84692C86.0967 5.96859 86.11 6.11053 86.1234 6.25248C86.1434 6.46203 86.1567 6.65129 86.1767 6.79324C86.1967 6.93519 86.2301 7.03658 86.2567 7.13797C86.2901 7.23936 86.3234 7.33399 86.3701 7.43539C86.4234 7.53678 86.4901 7.63817 86.5635 7.7328C86.6435 7.82743 86.7302 7.90855 86.8502 7.97614C86.9703 8.03698 87.117 8.08429 87.2503 8.10457C87.3904 8.12485 87.5171 8.13161 87.5971 8.11809C87.6771 8.10457 87.7171 8.07753 87.7238 8.03698C87.7305 7.99642 87.7038 7.9491 87.6704 7.89503C87.6371 7.84771 87.5971 7.79364 87.5371 7.70576C87.4771 7.61789 87.3904 7.4827 87.2903 7.32723C87.1903 7.16501 87.0703 6.96898 86.9503 6.7662C86.8302 6.55666 86.6969 6.34035 86.6302 6.18489C86.5568 6.02942 86.5501 5.94155 86.5101 5.84692C86.4901 5.7996 86.4701 5.75228 86.4434 5.70497C86.4768 5.70497 86.5101 5.70497 86.5435 5.70497C86.5768 5.75228 86.6035 5.80636 86.6302 5.86043C86.7035 5.99562 86.7569 6.11729 86.8302 6.25248C86.9036 6.38091 87.0036 6.52286 87.0903 6.65805C87.1837 6.79324 87.2703 6.92843 87.357 7.0501C87.4504 7.17177 87.5504 7.28668 87.6504 7.39483C87.7571 7.50298 87.8638 7.60437 87.9572 7.67872C88.0505 7.75308 88.1239 7.79364 88.2706 7.80715C88.4173 7.82067 88.6374 7.80715 88.8041 7.79364C88.9708 7.77336 89.0842 7.75308 89.1842 7.72604C89.2842 7.70576 89.3709 7.68548 89.4309 7.64493C89.4909 7.59761 89.5243 7.53002 89.5109 7.4827C89.4976 7.43538 89.4376 7.41511 89.3509 7.37455C89.2642 7.33399 89.1508 7.2664 89.0241 7.17853C88.8974 7.09065 88.7507 6.96898 88.5907 6.84731C88.4307 6.72564 88.2639 6.60397 88.0772 6.46878C87.8972 6.3336 87.7038 6.19165 87.5437 6.05646C87.3837 5.92127 87.2503 5.7996 87.1303 5.67793C87.0503 5.59682 86.9703 5.50894 86.8902 5.44811C86.9036 5.43459 86.9169 5.42107 86.9302 5.40755C86.9503 5.39403 86.9703 5.38051 86.9969 5.367C87.0636 5.42783 87.137 5.50894 87.2103 5.5833C87.3237 5.69145 87.417 5.79284 87.5237 5.88071C87.6238 5.96859 87.7305 6.0497 87.8372 6.13081C87.9439 6.20517 88.0505 6.27952 88.1772 6.36063C88.3039 6.44175 88.444 6.52962 88.5974 6.62425C88.7507 6.71888 88.9241 6.82028 89.0975 6.90139C89.2709 6.9825 89.4443 7.03658 89.6243 7.06362C89.8044 7.09065 89.9977 7.09065 90.2045 7.0501C90.4112 7.00278 90.6246 6.91491 90.8046 6.83379C90.9847 6.75268 91.1314 6.67157 91.1981 6.61749C91.2581 6.56342 91.2381 6.54314 91.1781 6.52286C91.118 6.50258 91.0114 6.48906 90.9047 6.46203C90.798 6.43499 90.6913 6.40119 90.5579 6.36739C90.4312 6.32684 90.2845 6.29304 90.0778 6.22544C89.8777 6.16461 89.6176 6.06998 89.4109 5.99562C89.1975 5.91451 89.0375 5.84692 88.7774 5.73876C88.5173 5.63061 88.1639 5.48867 87.8638 5.367C87.6371 5.27236 87.4504 5.19801 87.297 5.15745C87.317 5.12366 87.3304 5.08986 87.3304 5.05606C87.3304 5.03578 87.3304 5.02226 87.3304 5.00199C87.397 5.02902 87.4771 5.05606 87.5571 5.08986C87.7438 5.17097 87.9505 5.27236 88.2506 5.38727C88.5507 5.50218 88.9375 5.63737 89.2509 5.75228C89.5643 5.86719 89.7977 5.96183 90.0778 6.02266C90.3578 6.0835 90.6779 6.12405 90.9513 6.13757C91.2247 6.15109 91.4515 6.13757 91.6715 6.09026C91.8916 6.04294 92.0983 5.94831 92.2584 5.86043C92.4184 5.77256 92.5384 5.67793 92.6251 5.59006C92.7051 5.50218 92.7518 5.41431 92.7452 5.37375C92.7318 5.32644 92.6651 5.32644 92.4984 5.31292C92.325 5.2994 92.0516 5.27912 91.6382 5.21829C91.2181 5.15745 90.6579 5.0493 90.0778 4.94115C89.4976 4.833 88.8908 4.72485 88.3773 4.62346C87.9305 4.53558 87.5571 4.45447 87.3237 4.41391C87.3304 4.39364 87.3437 4.37336 87.3504 4.35308C87.5437 4.40039 87.8238 4.44095 88.1172 4.49503C88.4573 4.55586 88.8041 4.62346 89.1375 4.67753C89.4709 4.73161 89.7977 4.77892 90.1311 4.833C90.4579 4.88707 90.7913 4.94115 91.0514 4.97495C91.3181 5.00874 91.5115 5.02226 91.7115 5.02226C91.9116 5.02226 92.1183 5.02226 92.3184 4.98171C92.5251 4.94791 92.7251 4.88707 92.8785 4.82624C93.0319 4.7654 93.1253 4.71133 93.2186 4.62346C93.312 4.53558 93.3987 4.42743 93.4654 4.3328C93.532 4.23817 93.572 4.17057 93.5987 4.09622C93.6254 4.02187 93.6321 3.94751 93.6254 3.91371C93.6254 3.87992 93.6054 3.87992 93.4453 3.87992C93.292 3.87992 92.9986 3.87316 92.6651 3.85964C92.3317 3.85288 91.9583 3.83936 91.5182 3.8326C91.0714 3.82584 90.5579 3.81908 90.1044 3.81232C89.651 3.7988 89.2575 3.77853 88.8774 3.75149C88.4973 3.72445 88.1372 3.69741 87.8305 3.65686C87.6104 3.62982 87.417 3.59602 87.277 3.57574C87.277 3.5487 87.2837 3.52167 87.297 3.50815C87.317 3.48111 87.3437 3.46759 87.3704 3.46083C87.4304 3.48111 87.5304 3.50139 87.6771 3.52843C87.9038 3.56222 88.2573 3.58926 88.584 3.6163C88.9174 3.64334 89.2309 3.65686 89.5776 3.67713C89.9311 3.69065 90.3178 3.70417 90.7113 3.71769C91.1047 3.72445 91.5115 3.72445 91.8382 3.71769C92.1717 3.71769 92.4251 3.71769 92.6251 3.69741C92.8252 3.68389 92.9652 3.66362 93.1119 3.60954C93.2586 3.55546 93.4187 3.46759 93.5387 3.4C93.6587 3.3324 93.7388 3.27833 93.8321 3.21073C93.9188 3.14314 94.0188 3.05527 94.0989 2.97415C94.1789 2.89304 94.2456 2.81868 94.2856 2.75785C94.3256 2.70377 94.3389 2.66322 94.3389 2.62942C94.3389 2.59562 94.3256 2.56859 94.2789 2.56183L94.2522 2.57534Z" fill="#081C15" fill-opacity="0.25"/>
<path fill-rule="evenodd" clip-rule="evenodd" d="M83.1359 3.02822C83.1892 3.08906 83.2359 3.12286 83.2826 3.17017C83.3359 3.21073 83.3893 3.25129 83.4426 3.29184C83.496 3.3324 83.5493 3.3662 83.6027 3.42027C83.656 3.47435 83.716 3.5487 83.756 3.64333C83.7961 3.73797 83.8161 3.85288 83.8294 3.94075C83.8361 4.02862 83.8294 4.09622 83.8161 4.15029C83.7961 4.21113 83.756 4.2652 83.696 4.34632C83.636 4.42743 83.5427 4.52882 83.4493 4.62345C83.3559 4.71809 83.2492 4.80596 83.1559 4.88707C83.0559 4.96818 82.9625 5.04254 82.8758 5.10337C82.7891 5.16421 82.7091 5.19801 82.6758 5.22504C82.6357 5.25208 82.6424 5.2656 82.6758 5.27912C82.7091 5.29264 82.7758 5.30616 82.8691 5.32644C82.9625 5.34671 83.0892 5.37375 83.2226 5.40079C83.3626 5.42107 83.5093 5.44135 83.656 5.45486C83.8027 5.46838 83.9494 5.4819 84.1028 5.4819C84.2562 5.4819 84.4162 5.46838 84.5696 5.45486C84.723 5.43459 84.8697 5.40755 84.983 5.38727C85.1031 5.36023 85.1964 5.33319 85.2498 5.31292C85.3031 5.29264 85.3165 5.27912 85.3165 5.2318C85.3165 5.18449 85.3031 5.08985 85.2698 5.0155C85.2431 4.94115 85.1964 4.87355 85.1631 4.81272C85.1231 4.75188 85.0964 4.69781 85.0697 4.63697C85.0431 4.57614 85.0231 4.50854 85.0097 4.40039C84.9964 4.29224 84.9964 4.13677 84.983 4.00834C84.9697 3.87991 84.9497 3.78528 84.923 3.69741C84.8964 3.6163 84.8697 3.5487 84.8297 3.47435C84.7897 3.40675 84.743 3.3324 84.703 3.2648C84.6563 3.20397 84.6163 3.14313 84.5696 3.07554C84.5163 3.00119 84.4629 2.91331 84.4162 2.85248C84.3695 2.79164 84.3362 2.75785 84.3295 2.73757C84.3229 2.71729 84.3362 2.71053 84.3629 2.70377C84.3896 2.69701 84.4162 2.68349 84.4496 2.66321C84.4829 2.64294 84.5096 2.60914 84.5363 2.57534C84.5629 2.54154 84.5829 2.50775 84.5829 2.47395C84.5829 2.44015 84.5696 2.40636 84.5496 2.39284C84.5296 2.37256 84.5029 2.37256 84.4496 2.37932C84.3962 2.38608 84.3229 2.3996 84.2562 2.41311C84.1895 2.42663 84.1361 2.43339 84.0828 2.42663C84.0295 2.42663 83.9694 2.41311 83.8961 2.40636C83.8227 2.3996 83.7227 2.3996 83.6427 2.39284C83.5627 2.39284 83.496 2.39284 83.416 2.39284C83.3359 2.39284 83.2359 2.40636 83.1626 2.43339C83.0892 2.46043 83.0359 2.49423 83.0092 2.56182C82.9825 2.62942 82.9758 2.72405 83.0092 2.81192C83.0359 2.89979 83.0892 2.97415 83.1425 3.03498L83.1359 3.02822Z" fill="#081C15" fill-opacity="0.25"/>
<path fill-rule="evenodd" clip-rule="evenodd" d="M82.349 3.41351C82.3957 3.45407 82.4424 3.48787 82.4624 3.47435C82.4824 3.45407 82.4691 3.37972 82.4691 3.31888C82.4691 3.25129 82.4691 3.19721 82.4957 3.15665C82.5158 3.1161 82.5491 3.09582 82.5891 3.08906C82.6291 3.08906 82.6891 3.09582 82.7425 3.12962C82.7958 3.16341 82.8492 3.21073 82.8825 3.25805C82.9159 3.30536 82.9359 3.33916 82.9425 3.38648C82.9559 3.42703 82.9625 3.47435 82.9425 3.5149C82.9292 3.5487 82.8959 3.57574 82.8625 3.60278C82.8292 3.62306 82.7892 3.64333 82.7425 3.65685C82.6958 3.67713 82.6425 3.69741 82.6091 3.71093C82.5758 3.72445 82.5558 3.72445 82.5824 3.74473C82.6091 3.75824 82.6891 3.79204 82.7692 3.80556C82.8492 3.81908 82.9359 3.81908 83.0292 3.80556C83.1226 3.79204 83.2293 3.765 83.3026 3.73797C83.376 3.70417 83.416 3.67037 83.4427 3.62982C83.4693 3.58926 83.4827 3.5487 83.4427 3.49463C83.4093 3.44055 83.3226 3.38648 83.2493 3.32564C83.1759 3.26481 83.1026 3.21073 83.0492 3.14989C82.9959 3.08906 82.9625 3.01471 82.9359 2.94711C82.9092 2.87952 82.8959 2.81192 82.8825 2.75785C82.8692 2.70377 82.8692 2.66997 82.8158 2.65646C82.7692 2.64294 82.6758 2.64294 82.5958 2.65646C82.5158 2.67673 82.4491 2.71729 82.3891 2.77137C82.329 2.82544 82.2824 2.89304 82.2557 2.98091C82.229 3.06878 82.2223 3.17017 82.2423 3.24453C82.2624 3.31888 82.3024 3.3662 82.349 3.40675V3.41351Z" fill="#081C15" fill-opacity="0.25"/>
</g>
<defs>
<clipPath id="clip0_27_89">
<rect width="123" height="17" fill="white"/>
</clipPath>
</defs>
</svg>
