<svg width="31" height="37" viewBox="0 0 31 37" fill="none" xmlns="http://www.w3.org/2000/svg">
<g filter="url(#filter0_d_27_83)">
<path d="M5.96916 5.83178C6.2041 4.89202 6.32156 4.42214 6.67194 4.14856C7.02233 3.875 7.50667 3.875 8.47535 3.875H22.5246C23.4934 3.875 23.9777 3.875 24.328 4.14856C24.6785 4.42214 24.7959 4.89202 25.0308 5.83178L26.5855 12.0504C26.7107 12.5508 26.7732 12.801 26.7593 13.0042C26.7236 13.5311 26.3707 13.9832 25.8681 14.1457C25.6743 14.2083 25.4105 14.2083 24.8828 14.2083C24.1941 14.2083 23.8499 14.2083 23.5607 14.1409C22.7505 13.9522 22.0808 13.3849 21.7614 12.6168C21.6474 12.3426 21.592 12.0106 21.4815 11.3467C21.4505 11.161 21.435 11.0681 21.4174 11.0437C21.3659 10.9719 21.2592 10.9719 21.2076 11.0437C21.1901 11.0681 21.1746 11.161 21.1436 11.3467L21.0383 11.9787C21.0272 12.0457 21.0215 12.0792 21.016 12.1085C20.788 13.3048 19.7555 14.1795 18.538 14.2077C18.5082 14.2083 18.4742 14.2083 18.4063 14.2083C18.3383 14.2083 18.3044 14.2083 18.2745 14.2077C17.057 14.1795 16.0246 13.3048 15.7966 12.1085C15.791 12.0792 15.7853 12.0457 15.7742 11.9787L15.669 11.3467C15.638 11.161 15.6225 11.0681 15.6049 11.0437C15.5534 10.9719 15.4467 10.9719 15.3951 11.0437C15.3776 11.0681 15.3621 11.161 15.3311 11.3467L15.2258 11.9787C15.2147 12.0457 15.209 12.0792 15.2035 12.1085C14.9755 13.3048 13.943 14.1795 12.7255 14.2077C12.6956 14.2083 12.6617 14.2083 12.5938 14.2083C12.5259 14.2083 12.4919 14.2083 12.462 14.2077C11.2445 14.1795 10.212 13.3048 9.98408 12.1085C9.97849 12.0792 9.97291 12.0457 9.96174 11.9787L9.85642 11.3467C9.82545 11.161 9.80998 11.0681 9.79243 11.0437C9.74089 10.9719 9.63415 10.9719 9.58261 11.0437C9.56505 11.0681 9.54958 11.161 9.51862 11.3467C9.40796 12.0106 9.35264 12.3426 9.23865 12.6168C8.91929 13.3849 8.24957 13.9522 7.43938 14.1409C7.15021 14.2083 6.80587 14.2083 6.11723 14.2083C5.58954 14.2083 5.32568 14.2083 5.13189 14.1457C4.62939 13.9832 4.27644 13.5311 4.24065 13.0042C4.22685 12.801 4.2894 12.5508 4.41448 12.0504L5.96916 5.83178Z" fill="#222222"/>
<path fill-rule="evenodd" clip-rule="evenodd" d="M6.48094 16.1461C6.45837 16.6898 6.45837 17.328 6.45837 18.0833V25.8333C6.45837 27.0511 6.45837 27.66 6.83669 28.0383C7.21502 28.4167 7.82391 28.4167 9.04171 28.4167H12.9167V23.25C12.9167 22.5366 13.495 21.9583 14.2084 21.9583H16.7917C17.5051 21.9583 18.0834 22.5366 18.0834 23.25V28.4167H21.9584C23.1762 28.4167 23.785 28.4167 24.1634 28.0383C24.5417 27.66 24.5417 27.0511 24.5417 25.8333V18.0833C24.5417 17.328 24.5417 16.6898 24.5191 16.1461C24.0479 16.1449 23.566 16.1316 23.1211 16.0279C22.4502 15.8716 21.8344 15.567 21.3125 15.1471C20.5581 15.7543 19.6079 16.1209 18.5829 16.1447C18.5298 16.1458 18.4737 16.1458 18.4204 16.1458H18.4063H18.3923C18.339 16.1458 18.2828 16.1458 18.2297 16.1447C17.2047 16.1209 16.2545 15.7543 15.5 15.1471C14.7456 15.7543 13.7954 16.1209 12.7703 16.1447C12.7172 16.1458 12.6613 16.1458 12.6078 16.1458H12.5938H12.5799C12.5264 16.1458 12.4704 16.1458 12.4172 16.1447C11.3922 16.1209 10.442 15.7543 9.68754 15.1471C9.16566 15.567 8.54984 15.8716 7.879 16.0279C7.43413 16.1316 6.95214 16.1449 6.48094 16.1461Z" fill="#222222"/>
</g>
<defs>
<filter id="filter0_d_27_83" x="-4" y="0" width="39" height="39" filterUnits="userSpaceOnUse" color-interpolation-filters="sRGB">
<feFlood flood-opacity="0" result="BackgroundImageFix"/>
<feColorMatrix in="SourceAlpha" type="matrix" values="0 0 0 0 0 0 0 0 0 0 0 0 0 0 0 0 0 0 127 0" result="hardAlpha"/>
<feOffset dy="4"/>
<feGaussianBlur stdDeviation="2"/>
<feComposite in2="hardAlpha" operator="out"/>
<feColorMatrix type="matrix" values="0 0 0 0 0 0 0 0 0 0 0 0 0 0 0 0 0 0 0.25 0"/>
<feBlend mode="normal" in2="BackgroundImageFix" result="effect1_dropShadow_27_83"/>
<feBlend mode="normal" in="SourceGraphic" in2="effect1_dropShadow_27_83" result="shape"/>
</filter>
</defs>
</svg>
