<svg width="40" height="40" viewBox="0 0 40 40" fill="none" xmlns="http://www.w3.org/2000/svg">
<path d="M29.1667 33.3333C31.4679 33.3333 33.3333 31.4679 33.3333 29.1667C33.3333 26.8655 31.4679 25 29.1667 25C26.8655 25 25 26.8655 25 29.1667C25 31.4679 26.8655 33.3333 29.1667 33.3333Z" stroke="#008A22" stroke-opacity="0.5" stroke-width="2"/>
<path d="M35 35L32.5 32.5" stroke="#008A22" stroke-opacity="0.5" stroke-width="2" stroke-linecap="round"/>
<path fill-rule="evenodd" clip-rule="evenodd" d="M6.66663 16.6667C6.66663 10.3813 6.66663 7.23859 8.61924 5.28595C10.5719 3.33334 13.7146 3.33334 20 3.33334C26.2853 3.33334 29.4281 3.33334 31.3806 5.28595C33.3333 7.23859 33.3333 10.3813 33.3333 16.6667V21.9482C32.1076 21.2392 30.6845 20.8333 29.1666 20.8333C24.5643 20.8333 20.8333 24.5643 20.8333 29.1667C20.8333 32.4047 22.6801 35.2115 25.378 36.591C23.895 36.6667 22.1275 36.6667 20 36.6667C13.7146 36.6667 10.5719 36.6667 8.61924 34.714C6.66663 32.7615 6.66663 29.6187 6.66663 23.3333V16.6667ZM13.3333 8.33334C12.4128 8.33334 11.6666 9.07954 11.6666 10C11.6666 10.9205 12.4128 11.6667 13.3333 11.6667H20C20.9205 11.6667 21.6666 10.9205 21.6666 10C21.6666 9.07954 20.9205 8.33334 20 8.33334H13.3333ZM13.3333 15C12.4128 15 11.6666 15.7462 11.6666 16.6667C11.6666 17.5872 12.4128 18.3333 13.3333 18.3333H23.3333C24.2538 18.3333 25 17.5872 25 16.6667C25 15.7462 24.2538 15 23.3333 15H13.3333ZM13.3333 21.6667C12.4128 21.6667 11.6666 22.4128 11.6666 23.3333C11.6666 24.2538 12.4128 25 13.3333 25H18.3333C19.2538 25 20 24.2538 20 23.3333C20 22.4128 19.2538 21.6667 18.3333 21.6667H13.3333Z" fill="#008A22" fill-opacity="0.5"/>
</svg>
