<svg width="40" height="40" viewBox="0 0 40 40" fill="none" xmlns="http://www.w3.org/2000/svg">
<path fill-rule="evenodd" clip-rule="evenodd" d="M11.6667 12C11.6667 10.1332 11.6667 9.19973 12.03 8.4867C12.3495 7.85948 12.8595 7.34955 13.4867 7.02998C14.1997 6.66667 15.1332 6.66667 17 6.66667H19.1687C20.0868 6.66667 20.546 6.66667 20.9715 6.78113C21.3483 6.88255 21.7047 7.04938 22.0238 7.27405C22.3842 7.5276 22.678 7.8803 23.2658 8.58568L25.8333 11.6667H29.6667C31.5335 11.6667 32.467 11.6667 33.18 12.03C33.8072 12.3495 34.3172 12.8595 34.6367 13.4867C35 14.1997 35 15.1332 35 17V21.3333C35 23.2002 35 24.1337 34.6367 24.8467C34.3172 25.4738 33.8072 25.9838 33.18 26.3033C32.467 26.6667 31.5335 26.6667 29.6667 26.6667H28.3333H13.3333C12.4129 26.6667 11.6667 25.9205 11.6667 25V13.3333V12ZM8.33333 13.3653C7.67965 13.4052 7.21588 13.4949 6.82003 13.6966C6.19282 14.0162 5.68288 14.5261 5.36332 15.1534C5 15.8664 5 16.7998 5 18.6667V22.6667C5 26.4003 5 28.2672 5.72662 29.6933C6.36578 30.9477 7.38565 31.9675 8.64007 32.6067C10.0662 33.3333 11.933 33.3333 15.6667 33.3333H23C24.8668 33.3333 25.8003 33.3333 26.5133 32.97C27.1405 32.6505 27.6505 32.1405 27.97 31.5133C28.1717 31.1175 28.2615 30.6537 28.3013 30H13.3333C10.5719 30 8.33333 27.7615 8.33333 25V13.3653Z" fill="#008A22" fill-opacity="0.5"/>
</svg>
