<svg width="40" height="40" viewBox="0 0 40 40" fill="none" xmlns="http://www.w3.org/2000/svg">
<path d="M15 6.66667H8.33329C7.41282 6.66667 6.66663 7.41286 6.66663 8.33334V16.6667C6.66663 17.5871 7.41282 18.3333 8.33329 18.3333H15C15.9204 18.3333 16.6666 17.5871 16.6666 16.6667V8.33334C16.6666 7.41286 15.9204 6.66667 15 6.66667Z" stroke="white" stroke-width="3" stroke-linejoin="round"/>
<path d="M15 25H8.33329C7.41282 25 6.66663 25.7462 6.66663 26.6667V31.6667C6.66663 32.5871 7.41282 33.3333 8.33329 33.3333H15C15.9204 33.3333 16.6666 32.5871 16.6666 31.6667V26.6667C16.6666 25.7462 15.9204 25 15 25Z" stroke="white" stroke-width="3" stroke-linejoin="round"/>
<path d="M31.6667 6.66667H25C24.0796 6.66667 23.3334 7.41286 23.3334 8.33334V13.3333C23.3334 14.2538 24.0796 15 25 15H31.6667C32.5872 15 33.3334 14.2538 33.3334 13.3333V8.33334C33.3334 7.41286 32.5872 6.66667 31.6667 6.66667Z" stroke="white" stroke-width="3" stroke-linejoin="round"/>
<path d="M31.6667 21.6667H25C24.0796 21.6667 23.3334 22.4129 23.3334 23.3333V31.6667C23.3334 32.5871 24.0796 33.3333 25 33.3333H31.6667C32.5872 33.3333 33.3334 32.5871 33.3334 31.6667V23.3333C33.3334 22.4129 32.5872 21.6667 31.6667 21.6667Z" stroke="white" stroke-width="3" stroke-linejoin="round"/>
</svg>
