<svg width="40" height="40" viewBox="0 0 40 40" fill="none" xmlns="http://www.w3.org/2000/svg">
<path fill-rule="evenodd" clip-rule="evenodd" d="M14.1944 7.99356C9.73901 10.1519 6.66663 14.7171 6.66663 20C6.66663 20.3282 6.67848 20.6535 6.70179 20.9758L16.9381 18.233L14.1944 7.99356ZM19.0246 6.70179L21.9835 17.7438L22.0028 17.8162C22.0861 18.1257 22.2036 18.5622 22.2553 18.9625C22.3203 19.467 22.3356 20.265 21.8661 21.0782C21.3966 21.8913 20.698 22.277 20.2285 22.473C19.856 22.6285 19.4191 22.745 19.1095 22.8275L19.0371 22.8468L7.99373 25.806C10.1521 30.2612 14.7173 33.3333 20 33.3333C27.3638 33.3333 33.3333 27.3638 33.3333 20C33.3333 12.6362 27.3638 6.66667 20 6.66667C19.672 6.66667 19.3468 6.67852 19.0246 6.70179Z" fill="#008A22" fill-opacity="0.5"/>
<path d="M16.5491 7.12098C16.1309 5.56003 15.9217 4.77955 15.2014 4.45477C14.4811 4.12998 13.8454 4.44637 12.574 5.07913C11.6172 5.55535 10.7061 6.12365 9.85403 6.77745C8.11761 8.10983 6.66065 9.7712 5.5663 11.6667C4.47195 13.5621 3.76165 15.6546 3.47596 17.8245C3.33578 18.8893 3.29918 19.9625 3.36519 21.0293C3.45289 22.4468 3.49676 23.1555 4.13818 23.6168C4.7796 24.0783 5.56008 23.8692 7.12103 23.451L16.7802 20.8627C18.298 20.456 19.057 20.2527 19.4022 19.6548C19.7474 19.057 19.544 18.298 19.1374 16.7802L16.5491 7.12098Z" fill="#008A22" fill-opacity="0.5"/>
</svg>
